# xmcd
#
# Track frame offsets: 
#        150
#        13607
#        26337
#        39582
#        52162
#        67232
#        82087
#        97307
#        109702
#        125542
#        143725
#        160227
#        173050
#        186072
#        199907
#        210700
#        224162
#        238375
#        254117
#        270800
#        284987
#
# Disc length: 3989 seconds
#
# Revision: 2
# Processed by: cddbd v1.5.2PL0 Copyright (c) Steve Scherf et al.
# Submitted via: ExactAudioCopy v1.0b1
#
DISCID=550f9315
DTITLE=Elmore James - King of the Slide Guitar- The Complete Trumpet, 
DTITLE=Chief, and Fire Sessions [disc 3]
DYEAR=1997
DGENRE=Blues
TTITLE0=My Baby's Gone (stereo)
TTITLE1=Find My Kinda Woman (alt) (mono)
TTITLE2=Look On Yonder Wall (1963) (mono)
TTITLE3=Dust My Broom (1963 version 1) (stereo)
TTITLE4=It Hurts Me Too (1963) (stereo)
TTITLE5=Pickin' The Blues (Manhattan Slide) (stereo)
TTITLE6=Everyday I Have The Blues (stereo)
TTITLE7=I Have A Right To Love My Baby (stereo)
TTITLE8=The 12 Year Old Boy (1963) (stereo)
TTITLE9=Got To Move (1963) (stereo)
TTITLE10=I Gotta Go Now (stereo)
TTITLE11=Talk To Me Baby (stereo)
TTITLE12=Make My Dreams Come True (1963) (stereo)
TTITLE13=Hand In Hand (take 4) (stereo)
TTITLE14=Can't Stop Loving My Baby (stereo)
TTITLE15=Dust My Broom (1963 version 2) (stereo)
TTITLE16=Elmore Jumps One (Black Snake Slide) (stereo)
TTITLE17=I Believe (stereo)
TTITLE18=Back In Mississippi (spoken) (mono)
TTITLE19=Hand In Hand (take 1) (stereo)
TTITLE20=Hand In Hand (take 3) (stereo)
EXTD=
EXTT0=
EXTT1=
EXTT2=
EXTT3=
EXTT4=
EXTT5=
EXTT6=
EXTT7=
EXTT8=
EXTT9=
EXTT10=
EXTT11=
EXTT12=
EXTT13=
EXTT14=
EXTT15=
EXTT16=
EXTT17=
EXTT18=
EXTT19=
EXTT20=
PLAYORDER=
